<svg width="1024" height="753" viewBox="0 0 1024 753" fill="none" xmlns="http://www.w3.org/2000/svg">
<g clip-path="url(#clip0_175_1901)">
<rect width="1024" height="753" fill="#121214"/>
<g opacity="0.2" filter="url(#filter0_f_175_1901)">
<ellipse cx="511.5" cy="39" rx="670.5" ry="350" fill="#B3A659"/>
</g>
<path d="M32.0349 275C33.5302 275 34.6622 275.63 35.4308 276.891C36.2134 278.138 36.6047 279.953 36.6047 282.336C36.6047 284.719 36.2134 286.541 35.4308 287.802C34.6622 289.063 33.5302 289.693 32.0349 289.693C30.5536 289.693 29.4216 289.063 28.639 287.802C27.8564 286.541 27.4651 284.719 27.4651 282.336C27.4651 279.967 27.8564 278.152 28.639 276.891C29.4216 275.63 30.5536 275 32.0349 275ZM28.9534 282.336C28.9534 284.026 29.1072 285.35 29.4146 286.306L34.0683 277.099C33.5791 276.448 32.9013 276.122 32.0349 276.122C31.0706 276.122 30.316 276.635 29.771 277.66C29.2259 278.672 28.9534 280.23 28.9534 282.336ZM32.0349 288.55C33.0131 288.55 33.7748 288.044 34.3198 287.033C34.8648 286.008 35.1373 284.442 35.1373 282.336C35.1373 280.549 34.9627 279.163 34.6133 278.18L29.9596 287.469C30.4627 288.19 31.1545 288.55 32.0349 288.55Z" fill="url(#paint0_linear_175_1901)" fill-opacity="0.6"/>
<path d="M33.2926 312.135H36.3741V313.236H28.3874V312.135H31.9511V300.455L28.5551 302.471L27.9682 301.536L32.1607 298.959H33.2926V312.135Z" fill="url(#paint1_linear_175_1901)" fill-opacity="0.6"/>
<path d="M32.0349 322.502C33.5302 322.502 34.6622 323.133 35.4308 324.393C36.2134 325.64 36.6047 327.455 36.6047 329.838C36.6047 332.221 36.2134 334.043 35.4308 335.304C34.6622 336.565 33.5302 337.195 32.0349 337.195C30.5536 337.195 29.4216 336.565 28.639 335.304C27.8564 334.043 27.4651 332.221 27.4651 329.838C27.4651 327.469 27.8564 325.654 28.639 324.393C29.4216 323.133 30.5536 322.502 32.0349 322.502ZM28.9534 329.838C28.9534 331.529 29.1072 332.852 29.4146 333.808L34.0683 324.601C33.5791 323.95 32.9013 323.624 32.0349 323.624C31.0706 323.624 30.316 324.137 29.771 325.162C29.2259 326.174 28.9534 327.732 28.9534 329.838ZM32.0349 336.052C33.0131 336.052 33.7748 335.546 34.3198 334.535C34.8648 333.51 35.1373 331.944 35.1373 329.838C35.1373 328.051 34.9627 326.665 34.6133 325.682L29.9596 334.971C30.4627 335.692 31.1545 336.052 32.0349 336.052Z" fill="url(#paint2_linear_175_1901)" fill-opacity="0.6"/>
<path d="M33.2926 359.637H36.3741V360.738H28.3874V359.637H31.9511V347.957L28.5551 349.973L27.9682 349.038L32.1607 346.461H33.2926V359.637Z" fill="url(#paint3_linear_175_1901)" fill-opacity="0.6"/>
<path d="M33.2926 383.388H36.3741V384.489H28.3874V383.388H31.9511V371.708L28.5551 373.724L27.9682 372.789L32.1607 370.212H33.2926V383.388Z" fill="url(#paint4_linear_175_1901)" fill-opacity="0.6"/>
<path d="M32.0349 393.755C33.5302 393.755 34.6622 394.386 35.4308 395.646C36.2134 396.893 36.6047 398.708 36.6047 401.091C36.6047 403.474 36.2134 405.296 35.4308 406.557C34.6622 407.818 33.5302 408.448 32.0349 408.448C30.5536 408.448 29.4216 407.818 28.639 406.557C27.8564 405.296 27.4651 403.474 27.4651 401.091C27.4651 398.722 27.8564 396.907 28.639 395.646C29.4216 394.386 30.5536 393.755 32.0349 393.755ZM28.9534 401.091C28.9534 402.782 29.1072 404.105 29.4146 405.061L34.0683 395.854C33.5791 395.203 32.9013 394.878 32.0349 394.878C31.0706 394.878 30.316 395.39 29.771 396.415C29.2259 397.427 28.9534 398.985 28.9534 401.091ZM32.0349 407.305C33.0131 407.305 33.7748 406.8 34.3198 405.788C34.8648 404.763 35.1373 403.197 35.1373 401.091C35.1373 399.304 34.9627 397.919 34.6133 396.935L29.9596 406.225C30.4627 406.945 31.1545 407.305 32.0349 407.305Z" fill="url(#paint5_linear_175_1901)" fill-opacity="0.6"/>
<path d="M33.2926 430.89H36.3741V431.992H28.3874V430.89H31.9511V419.21L28.5551 421.226L27.9682 420.291L32.1607 417.714H33.2926V430.89Z" fill="url(#paint6_linear_175_1901)" fill-opacity="0.6"/>
<path d="M32.0349 441.257C33.5302 441.257 34.6622 441.888 35.4308 443.149C36.2134 444.396 36.6047 446.211 36.6047 448.594C36.6047 450.977 36.2134 452.798 35.4308 454.059C34.6622 455.32 33.5302 455.95 32.0349 455.95C30.5536 455.95 29.4216 455.32 28.639 454.059C27.8564 452.798 27.4651 450.977 27.4651 448.594C27.4651 446.224 27.8564 444.409 28.639 443.149C29.4216 441.888 30.5536 441.257 32.0349 441.257ZM28.9534 448.594C28.9534 450.284 29.1072 451.607 29.4146 452.563L34.0683 443.356C33.5791 442.705 32.9013 442.38 32.0349 442.38C31.0706 442.38 30.316 442.892 29.771 443.918C29.2259 444.929 28.9534 446.488 28.9534 448.594ZM32.0349 454.807C33.0131 454.807 33.7748 454.302 34.3198 453.29C34.8648 452.265 35.1373 450.699 35.1373 448.594C35.1373 446.806 34.9627 445.421 34.6133 444.437L29.9596 453.727C30.4627 454.447 31.1545 454.807 32.0349 454.807Z" fill="url(#paint7_linear_175_1901)" fill-opacity="0.6"/>
<path d="M32.0349 465.008C33.5302 465.008 34.6622 465.639 35.4308 466.9C36.2134 468.147 36.6047 469.962 36.6047 472.345C36.6047 474.728 36.2134 476.549 35.4308 477.81C34.6622 479.071 33.5302 479.701 32.0349 479.701C30.5536 479.701 29.4216 479.071 28.639 477.81C27.8564 476.549 27.4651 474.728 27.4651 472.345C27.4651 469.975 27.8564 468.16 28.639 466.9C29.4216 465.639 30.5536 465.008 32.0349 465.008ZM28.9534 472.345C28.9534 474.035 29.1072 475.358 29.4146 476.314L34.0683 467.107C33.5791 466.456 32.9013 466.131 32.0349 466.131C31.0706 466.131 30.316 466.643 29.771 467.669C29.2259 468.68 28.9534 470.239 28.9534 472.345ZM32.0349 478.558C33.0131 478.558 33.7748 478.053 34.3198 477.041C34.8648 476.016 35.1373 474.451 35.1373 472.345C35.1373 470.557 34.9627 469.172 34.6133 468.188L29.9596 477.478C30.4627 478.198 31.1545 478.558 32.0349 478.558Z" fill="url(#paint8_linear_175_1901)" fill-opacity="0.6"/>
<path d="M33.2926 502.143H36.3741V503.245H28.3874V502.143H31.9511V490.464L28.5551 492.48L27.9682 491.544L32.1607 488.967H33.2926V502.143Z" fill="url(#paint9_linear_175_1901)" fill-opacity="0.6"/>
<path d="M32.0349 512.511C33.5302 512.511 34.6622 513.141 35.4308 514.402C36.2134 515.649 36.6047 517.464 36.6047 519.847C36.6047 522.23 36.2134 524.052 35.4308 525.312C34.6622 526.573 33.5302 527.204 32.0349 527.204C30.5536 527.204 29.4216 526.573 28.639 525.312C27.8564 524.052 27.4651 522.23 27.4651 519.847C27.4651 517.478 27.8564 515.663 28.639 514.402C29.4216 513.141 30.5536 512.511 32.0349 512.511ZM28.9534 519.847C28.9534 521.537 29.1072 522.86 29.4146 523.816L34.0683 514.61C33.5791 513.958 32.9013 513.633 32.0349 513.633C31.0706 513.633 30.316 514.145 29.771 515.171C29.2259 516.182 28.9534 517.741 28.9534 519.847ZM32.0349 526.061C33.0131 526.061 33.7748 525.555 34.3198 524.543C34.8648 523.518 35.1373 521.953 35.1373 519.847C35.1373 518.059 34.9627 516.674 34.6133 515.69L29.9596 524.98C30.4627 525.7 31.1545 526.061 32.0349 526.061Z" fill="url(#paint10_linear_175_1901)" fill-opacity="0.6"/>
<path d="M33.2926 549.645H36.3741V550.747H28.3874V549.645H31.9511V537.966L28.5551 539.982L27.9682 539.046L32.1607 536.469H33.2926V549.645Z" fill="url(#paint11_linear_175_1901)" fill-opacity="0.6"/>
<path d="M33.2926 573.396H36.3741V574.498H28.3874V573.396H31.9511V561.717L28.5551 563.733L27.9682 562.798L32.1607 560.221H33.2926V573.396Z" fill="url(#paint12_linear_175_1901)" fill-opacity="0.6"/>
<path d="M70.9651 322.502C72.4604 322.502 73.5924 323.133 74.361 324.393C75.1436 325.64 75.5349 327.455 75.5349 329.838C75.5349 332.221 75.1436 334.043 74.361 335.304C73.5924 336.565 72.4604 337.195 70.9651 337.195C69.4838 337.195 68.3518 336.565 67.5692 335.304C66.7866 334.043 66.3953 332.221 66.3953 329.838C66.3953 327.469 66.7866 325.654 67.5692 324.393C68.3518 323.133 69.4838 322.502 70.9651 322.502ZM67.8836 329.838C67.8836 331.529 68.0374 332.852 68.3448 333.808L72.9985 324.601C72.5093 323.95 71.8315 323.624 70.9651 323.624C70.0008 323.624 69.2462 324.137 68.7012 325.162C68.1561 326.174 67.8836 327.732 67.8836 329.838ZM70.9651 336.052C71.9433 336.052 72.705 335.546 73.25 334.535C73.795 333.51 74.0675 331.944 74.0675 329.838C74.0675 328.051 73.8928 326.665 73.5435 325.682L68.8898 334.971C69.3929 335.692 70.0847 336.052 70.9651 336.052Z" fill="url(#paint13_linear_175_1901)" fill-opacity="0.6"/>
<path d="M72.2228 359.637H75.3043V360.738H67.3176V359.637H70.8812V347.957L67.4853 349.973L66.8984 349.038L71.0909 346.461H72.2228V359.637Z" fill="url(#paint14_linear_175_1901)" fill-opacity="0.6"/>
<path d="M70.9651 370.004C72.4604 370.004 73.5924 370.635 74.361 371.895C75.1436 373.142 75.5349 374.957 75.5349 377.34C75.5349 379.723 75.1436 381.545 74.361 382.806C73.5924 384.067 72.4604 384.697 70.9651 384.697C69.4838 384.697 68.3518 384.067 67.5692 382.806C66.7866 381.545 66.3953 379.723 66.3953 377.34C66.3953 374.971 66.7866 373.156 67.5692 371.895C68.3518 370.635 69.4838 370.004 70.9651 370.004ZM67.8836 377.34C67.8836 379.031 68.0374 380.354 68.3448 381.31L72.9985 372.103C72.5093 371.452 71.8315 371.126 70.9651 371.126C70.0008 371.126 69.2462 371.639 68.7012 372.664C68.1561 373.676 67.8836 375.234 67.8836 377.34ZM70.9651 383.554C71.9433 383.554 72.705 383.049 73.25 382.037C73.795 381.012 74.0675 379.446 74.0675 377.34C74.0675 375.553 73.8928 374.168 73.5435 373.184L68.8898 382.474C69.3929 383.194 70.0847 383.554 70.9651 383.554Z" fill="url(#paint15_linear_175_1901)" fill-opacity="0.6"/>
<path d="M70.9651 393.755C72.4604 393.755 73.5924 394.386 74.361 395.646C75.1436 396.893 75.5349 398.708 75.5349 401.091C75.5349 403.474 75.1436 405.296 74.361 406.557C73.5924 407.818 72.4604 408.448 70.9651 408.448C69.4838 408.448 68.3518 407.818 67.5692 406.557C66.7866 405.296 66.3953 403.474 66.3953 401.091C66.3953 398.722 66.7866 396.907 67.5692 395.646C68.3518 394.386 69.4838 393.755 70.9651 393.755ZM67.8836 401.091C67.8836 402.782 68.0374 404.105 68.3448 405.061L72.9985 395.854C72.5093 395.203 71.8315 394.878 70.9651 394.878C70.0008 394.878 69.2462 395.39 68.7012 396.415C68.1561 397.427 67.8836 398.985 67.8836 401.091ZM70.9651 407.305C71.9433 407.305 72.705 406.8 73.25 405.788C73.795 404.763 74.0675 403.197 74.0675 401.091C74.0675 399.304 73.8928 397.919 73.5435 396.935L68.8898 406.225C69.3929 406.945 70.0847 407.305 70.9651 407.305Z" fill="url(#paint16_linear_175_1901)" fill-opacity="0.6"/>
<path d="M72.2228 430.89H75.3043V431.992H67.3176V430.89H70.8812V419.21L67.4853 421.226L66.8984 420.291L71.0909 417.714H72.2228V430.89Z" fill="url(#paint17_linear_175_1901)" fill-opacity="0.6"/>
<path d="M70.9651 441.257C72.4604 441.257 73.5924 441.888 74.361 443.149C75.1436 444.396 75.5349 446.211 75.5349 448.594C75.5349 450.977 75.1436 452.798 74.361 454.059C73.5924 455.32 72.4604 455.95 70.9651 455.95C69.4838 455.95 68.3518 455.32 67.5692 454.059C66.7866 452.798 66.3953 450.977 66.3953 448.594C66.3953 446.224 66.7866 444.409 67.5692 443.149C68.3518 441.888 69.4838 441.257 70.9651 441.257ZM67.8836 448.594C67.8836 450.284 68.0374 451.607 68.3448 452.563L72.9985 443.356C72.5093 442.705 71.8315 442.38 70.9651 442.38C70.0008 442.38 69.2462 442.892 68.7012 443.918C68.1561 444.929 67.8836 446.488 67.8836 448.594ZM70.9651 454.807C71.9433 454.807 72.705 454.302 73.25 453.29C73.795 452.265 74.0675 450.699 74.0675 448.594C74.0675 446.806 73.8928 445.421 73.5435 444.437L68.8898 453.727C69.3929 454.447 70.0847 454.807 70.9651 454.807Z" fill="url(#paint18_linear_175_1901)" fill-opacity="0.6"/>
<path d="M72.2228 478.392H75.3043V479.494H67.3176V478.392H70.8812V466.713L67.4853 468.728L66.8984 467.793L71.0909 465.216H72.2228V478.392Z" fill="url(#paint19_linear_175_1901)" fill-opacity="0.6"/>
<path d="M70.9651 488.76C72.4604 488.76 73.5924 489.39 74.361 490.651C75.1436 491.898 75.5349 493.713 75.5349 496.096C75.5349 498.479 75.1436 500.301 74.361 501.561C73.5924 502.822 72.4604 503.453 70.9651 503.453C69.4838 503.453 68.3518 502.822 67.5692 501.561C66.7866 500.301 66.3953 498.479 66.3953 496.096C66.3953 493.726 66.7866 491.911 67.5692 490.651C68.3518 489.39 69.4838 488.76 70.9651 488.76ZM67.8836 496.096C67.8836 497.786 68.0374 499.109 68.3448 500.065L72.9985 490.859C72.5093 490.207 71.8315 489.882 70.9651 489.882C70.0008 489.882 69.2462 490.394 68.7012 491.42C68.1561 492.431 67.8836 493.99 67.8836 496.096ZM70.9651 502.31C71.9433 502.31 72.705 501.804 73.25 500.792C73.795 499.767 74.0675 498.202 74.0675 496.096C74.0675 494.308 73.8928 492.923 73.5435 491.939L68.8898 501.229C69.3929 501.949 70.0847 502.31 70.9651 502.31Z" fill="url(#paint20_linear_175_1901)" fill-opacity="0.6"/>
<path d="M70.9651 512.511C72.4604 512.511 73.5924 513.141 74.361 514.402C75.1436 515.649 75.5349 517.464 75.5349 519.847C75.5349 522.23 75.1436 524.052 74.361 525.312C73.5924 526.573 72.4604 527.204 70.9651 527.204C69.4838 527.204 68.3518 526.573 67.5692 525.312C66.7866 524.052 66.3953 522.23 66.3953 519.847C66.3953 517.478 66.7866 515.663 67.5692 514.402C68.3518 513.141 69.4838 512.511 70.9651 512.511ZM67.8836 519.847C67.8836 521.537 68.0374 522.86 68.3448 523.816L72.9985 514.61C72.5093 513.958 71.8315 513.633 70.9651 513.633C70.0008 513.633 69.2462 514.145 68.7012 515.171C68.1561 516.182 67.8836 517.741 67.8836 519.847ZM70.9651 526.061C71.9433 526.061 72.705 525.555 73.25 524.543C73.795 523.518 74.0675 521.953 74.0675 519.847C74.0675 518.059 73.8928 516.674 73.5435 515.69L68.8898 524.98C69.3929 525.7 70.0847 526.061 70.9651 526.061Z" fill="url(#paint21_linear_175_1901)" fill-opacity="0.6"/>
<path d="M72.2228 549.645H75.3043V550.747H67.3176V549.645H70.8812V537.966L67.4853 539.982L66.8984 539.046L71.0909 536.469H72.2228V549.645Z" fill="url(#paint22_linear_175_1901)" fill-opacity="0.6"/>
<path d="M70.9651 560.013C72.4604 560.013 73.5924 560.643 74.361 561.904C75.1436 563.151 75.5349 564.966 75.5349 567.349C75.5349 569.732 75.1436 571.554 74.361 572.815C73.5924 574.075 72.4604 574.706 70.9651 574.706C69.4838 574.706 68.3518 574.075 67.5692 572.815C66.7866 571.554 66.3953 569.732 66.3953 567.349C66.3953 564.98 66.7866 563.165 67.5692 561.904C68.3518 560.643 69.4838 560.013 70.9651 560.013ZM67.8836 567.349C67.8836 569.039 68.0374 570.362 68.3448 571.318L72.9985 562.112C72.5093 561.461 71.8315 561.135 70.9651 561.135C70.0008 561.135 69.2462 561.648 68.7012 562.673C68.1561 563.684 67.8836 565.243 67.8836 567.349ZM70.9651 573.563C71.9433 573.563 72.705 573.057 73.25 572.046C73.795 571.02 74.0675 569.455 74.0675 567.349C74.0675 565.562 73.8928 564.176 73.5435 563.192L68.8898 572.482C69.3929 573.202 70.0847 573.563 70.9651 573.563Z" fill="url(#paint23_linear_175_1901)" fill-opacity="0.6"/>
<path d="M72.2228 597.147H75.3043V598.249H67.3176V597.147H70.8812V585.468L67.4853 587.484L66.8984 586.549L71.0909 583.972H72.2228V597.147Z" fill="url(#paint24_linear_175_1901)" fill-opacity="0.6"/>
<path d="M72.2228 620.899H75.3043V622H67.3176V620.899H70.8812V609.219L67.4853 611.235L66.8984 610.3L71.0909 607.723H72.2228V620.899Z" fill="url(#paint25_linear_175_1901)" fill-opacity="0.6"/>
<path d="M12.5698 346.253C14.0651 346.253 15.1971 346.884 15.9657 348.144C16.7483 349.391 17.1396 351.206 17.1396 353.589C17.1396 355.972 16.7483 357.794 15.9657 359.055C15.1971 360.316 14.0651 360.946 12.5698 360.946C11.0885 360.946 9.95649 360.316 9.1739 359.055C8.3913 357.794 8 355.972 8 353.589C8 351.22 8.3913 349.405 9.1739 348.144C9.95649 346.884 11.0885 346.253 12.5698 346.253ZM9.48833 353.589C9.48833 355.28 9.64206 356.603 9.9495 357.559L14.6032 348.352C14.114 347.701 13.4363 347.375 12.5698 347.375C11.6055 347.375 10.8509 347.888 10.3059 348.913C9.76084 349.925 9.48833 351.483 9.48833 353.589ZM12.5698 359.803C13.5481 359.803 14.3097 359.297 14.8547 358.286C15.3997 357.261 15.6722 355.695 15.6722 353.589C15.6722 351.802 15.4976 350.417 15.1482 349.433L10.4945 358.722C10.9976 359.443 11.6894 359.803 12.5698 359.803Z" fill="url(#paint26_linear_175_1901)" fill-opacity="0.6"/>
<path d="M12.5698 370.004C14.0651 370.004 15.1971 370.635 15.9657 371.895C16.7483 373.142 17.1396 374.957 17.1396 377.34C17.1396 379.723 16.7483 381.545 15.9657 382.806C15.1971 384.067 14.0651 384.697 12.5698 384.697C11.0885 384.697 9.95649 384.067 9.1739 382.806C8.3913 381.545 8 379.723 8 377.34C8 374.971 8.3913 373.156 9.1739 371.895C9.95649 370.635 11.0885 370.004 12.5698 370.004ZM9.48833 377.34C9.48833 379.031 9.64206 380.354 9.9495 381.31L14.6032 372.103C14.114 371.452 13.4363 371.126 12.5698 371.126C11.6055 371.126 10.8509 371.639 10.3059 372.664C9.76084 373.676 9.48833 375.234 9.48833 377.34ZM12.5698 383.554C13.5481 383.554 14.3097 383.049 14.8547 382.037C15.3997 381.012 15.6722 379.446 15.6722 377.34C15.6722 375.553 15.4976 374.168 15.1482 373.184L10.4945 382.474C10.9976 383.194 11.6894 383.554 12.5698 383.554Z" fill="url(#paint27_linear_175_1901)" fill-opacity="0.6"/>
<path d="M13.8276 407.139H16.909V408.24H8.92235V407.139H12.486V395.459L9.09005 397.475L8.5031 396.54L12.6956 393.963H13.8276V407.139Z" fill="url(#paint28_linear_175_1901)" fill-opacity="0.6"/>
<path d="M12.5698 417.506C14.0651 417.506 15.1971 418.137 15.9657 419.398C16.7483 420.644 17.1396 422.459 17.1396 424.842C17.1396 427.225 16.7483 429.047 15.9657 430.308C15.1971 431.569 14.0651 432.199 12.5698 432.199C11.0885 432.199 9.95649 431.569 9.1739 430.308C8.3913 429.047 8 427.225 8 424.842C8 422.473 8.3913 420.658 9.1739 419.398C9.95649 418.137 11.0885 417.506 12.5698 417.506ZM9.48833 424.842C9.48833 426.533 9.64206 427.856 9.9495 428.812L14.6032 419.605C14.114 418.954 13.4363 418.629 12.5698 418.629C11.6055 418.629 10.8509 419.141 10.3059 420.166C9.76084 421.178 9.48833 422.737 9.48833 424.842ZM12.5698 431.056C13.5481 431.056 14.3097 430.551 14.8547 429.539C15.3997 428.514 15.6722 426.948 15.6722 424.842C15.6722 423.055 15.4976 421.67 15.1482 420.686L10.4945 429.976C10.9976 430.696 11.6894 431.056 12.5698 431.056Z" fill="url(#paint29_linear_175_1901)" fill-opacity="0.6"/>
<path d="M13.8276 454.641H16.909V455.743H8.92235V454.641H12.486V442.962L9.09005 444.977L8.5031 444.042L12.6956 441.465H13.8276V454.641Z" fill="url(#paint30_linear_175_1901)" fill-opacity="0.6"/>
<path d="M13.8276 478.392H16.909V479.494H8.92235V478.392H12.486V466.713L9.09005 468.728L8.5031 467.793L12.6956 465.216H13.8276V478.392Z" fill="url(#paint31_linear_175_1901)" fill-opacity="0.6"/>
<path d="M52.7577 312.135H55.8392V313.236H47.8525V312.135H51.4162V300.455L48.0202 302.471L47.4333 301.536L51.6258 298.959H52.7577V312.135Z" fill="url(#paint32_linear_175_1901)" fill-opacity="0.6"/>
<path d="M51.5 322.502C52.9953 322.502 54.1273 323.133 54.8959 324.393C55.6785 325.64 56.0698 327.455 56.0698 329.838C56.0698 332.221 55.6785 334.043 54.8959 335.304C54.1273 336.565 52.9953 337.195 51.5 337.195C50.0187 337.195 48.8867 336.565 48.1041 335.304C47.3215 334.043 46.9302 332.221 46.9302 329.838C46.9302 327.469 47.3215 325.654 48.1041 324.393C48.8867 323.133 50.0187 322.502 51.5 322.502ZM48.4185 329.838C48.4185 331.529 48.5723 332.852 48.8797 333.808L53.5334 324.601C53.0442 323.95 52.3664 323.624 51.5 323.624C50.5357 323.624 49.7811 324.137 49.2361 325.162C48.691 326.174 48.4185 327.732 48.4185 329.838ZM51.5 336.052C52.4782 336.052 53.2399 335.546 53.7849 334.535C54.3299 333.51 54.6024 331.944 54.6024 329.838C54.6024 328.051 54.4277 326.665 54.0784 325.682L49.4247 334.971C49.9278 335.692 50.6196 336.052 51.5 336.052Z" fill="url(#paint33_linear_175_1901)" fill-opacity="0.6"/>
<path d="M52.7577 359.637H55.8392V360.738H47.8525V359.637H51.4162V347.957L48.0202 349.973L47.4333 349.038L51.6258 346.461H52.7577V359.637Z" fill="url(#paint34_linear_175_1901)" fill-opacity="0.6"/>
<path d="M52.7577 383.388H55.8392V384.489H47.8525V383.388H51.4162V371.708L48.0202 373.724L47.4333 372.789L51.6258 370.212H52.7577V383.388Z" fill="url(#paint35_linear_175_1901)" fill-opacity="0.6"/>
<path d="M51.5 393.755C52.9953 393.755 54.1273 394.386 54.8959 395.646C55.6785 396.893 56.0698 398.708 56.0698 401.091C56.0698 403.474 55.6785 405.296 54.8959 406.557C54.1273 407.818 52.9953 408.448 51.5 408.448C50.0187 408.448 48.8867 407.818 48.1041 406.557C47.3215 405.296 46.9302 403.474 46.9302 401.091C46.9302 398.722 47.3215 396.907 48.1041 395.646C48.8867 394.386 50.0187 393.755 51.5 393.755ZM48.4185 401.091C48.4185 402.782 48.5723 404.105 48.8797 405.061L53.5334 395.854C53.0442 395.203 52.3664 394.878 51.5 394.878C50.5357 394.878 49.7811 395.39 49.2361 396.415C48.691 397.427 48.4185 398.985 48.4185 401.091ZM51.5 407.305C52.4782 407.305 53.2399 406.8 53.7849 405.788C54.3299 404.763 54.6024 403.197 54.6024 401.091C54.6024 399.304 54.4277 397.919 54.0784 396.935L49.4247 406.225C49.9278 406.945 50.6196 407.305 51.5 407.305Z" fill="url(#paint36_linear_175_1901)" fill-opacity="0.6"/>
<path d="M52.7577 430.89H55.8392V431.992H47.8525V430.89H51.4162V419.21L48.0202 421.226L47.4333 420.291L51.6258 417.714H52.7577V430.89Z" fill="url(#paint37_linear_175_1901)" fill-opacity="0.6"/>
<path d="M52.7577 454.641H55.8392V455.743H47.8525V454.641H51.4162V442.962L48.0202 444.977L47.4333 444.042L51.6258 441.465H52.7577V454.641Z" fill="url(#paint38_linear_175_1901)" fill-opacity="0.6"/>
<path d="M51.5 465.008C52.9953 465.008 54.1273 465.639 54.8959 466.9C55.6785 468.147 56.0698 469.962 56.0698 472.345C56.0698 474.728 55.6785 476.549 54.8959 477.81C54.1273 479.071 52.9953 479.701 51.5 479.701C50.0187 479.701 48.8867 479.071 48.1041 477.81C47.3215 476.549 46.9302 474.728 46.9302 472.345C46.9302 469.975 47.3215 468.16 48.1041 466.9C48.8867 465.639 50.0187 465.008 51.5 465.008ZM48.4185 472.345C48.4185 474.035 48.5723 475.358 48.8797 476.314L53.5334 467.107C53.0442 466.456 52.3664 466.131 51.5 466.131C50.5357 466.131 49.7811 466.643 49.2361 467.669C48.691 468.68 48.4185 470.239 48.4185 472.345ZM51.5 478.558C52.4782 478.558 53.2399 478.053 53.7849 477.041C54.3299 476.016 54.6024 474.451 54.6024 472.345C54.6024 470.557 54.4277 469.172 54.0784 468.188L49.4247 477.478C49.9278 478.198 50.6196 478.558 51.5 478.558Z" fill="url(#paint39_linear_175_1901)" fill-opacity="0.6"/>
<path d="M52.7577 502.143H55.8392V503.245H47.8525V502.143H51.4162V490.464L48.0202 492.48L47.4333 491.544L51.6258 488.967H52.7577V502.143Z" fill="url(#paint40_linear_175_1901)" fill-opacity="0.6"/>
<path d="M51.5 512.511C52.9953 512.511 54.1273 513.141 54.8959 514.402C55.6785 515.649 56.0698 517.464 56.0698 519.847C56.0698 522.23 55.6785 524.052 54.8959 525.312C54.1273 526.573 52.9953 527.204 51.5 527.204C50.0187 527.204 48.8867 526.573 48.1041 525.312C47.3215 524.052 46.9302 522.23 46.9302 519.847C46.9302 517.478 47.3215 515.663 48.1041 514.402C48.8867 513.141 50.0187 512.511 51.5 512.511ZM48.4185 519.847C48.4185 521.537 48.5723 522.86 48.8797 523.816L53.5334 514.61C53.0442 513.958 52.3664 513.633 51.5 513.633C50.5357 513.633 49.7811 514.145 49.2361 515.171C48.691 516.182 48.4185 517.741 48.4185 519.847ZM51.5 526.061C52.4782 526.061 53.2399 525.555 53.7849 524.543C54.3299 523.518 54.6024 521.953 54.6024 519.847C54.6024 518.059 54.4277 516.674 54.0784 515.69L49.4247 524.98C49.9278 525.7 50.6196 526.061 51.5 526.061Z" fill="url(#paint41_linear_175_1901)" fill-opacity="0.6"/>
<path d="M90.4302 298.751C91.9255 298.751 93.0575 299.381 93.8261 300.642C94.6087 301.889 95 303.704 95 306.087C95 308.47 94.6087 310.292 93.8261 311.553C93.0575 312.814 91.9255 313.444 90.4302 313.444C88.9489 313.444 87.8169 312.814 87.0343 311.553C86.2517 310.292 85.8604 308.47 85.8604 306.087C85.8604 303.718 86.2517 301.903 87.0343 300.642C87.8169 299.381 88.9489 298.751 90.4302 298.751ZM87.3487 306.087C87.3487 307.777 87.5024 309.101 87.8099 310.057L92.4636 300.85C91.9744 300.199 91.2966 299.873 90.4302 299.873C89.4659 299.873 88.7113 300.386 88.1663 301.411C87.6212 302.423 87.3487 303.981 87.3487 306.087ZM90.4302 312.301C91.4084 312.301 92.1701 311.795 92.7151 310.784C93.2601 309.759 93.5326 308.193 93.5326 306.087C93.5326 304.3 93.3579 302.914 93.0086 301.931L88.3549 311.22C88.858 311.941 89.5498 312.301 90.4302 312.301Z" fill="url(#paint42_linear_175_1901)" fill-opacity="0.6"/>
<path d="M91.6879 335.886H94.7694V336.987H86.7827V335.886H90.3463V324.206L86.9504 326.222L86.3635 325.287L90.556 322.71H91.6879V335.886Z" fill="url(#paint43_linear_175_1901)" fill-opacity="0.6"/>
<path d="M91.6879 359.637H94.7694V360.738H86.7827V359.637H90.3463V347.957L86.9504 349.973L86.3635 349.038L90.556 346.461H91.6879V359.637Z" fill="url(#paint44_linear_175_1901)" fill-opacity="0.6"/>
<path d="M90.4302 370.004C91.9255 370.004 93.0575 370.635 93.8261 371.895C94.6087 373.142 95 374.957 95 377.34C95 379.723 94.6087 381.545 93.8261 382.806C93.0575 384.067 91.9255 384.697 90.4302 384.697C88.9489 384.697 87.8169 384.067 87.0343 382.806C86.2517 381.545 85.8604 379.723 85.8604 377.34C85.8604 374.971 86.2517 373.156 87.0343 371.895C87.8169 370.635 88.9489 370.004 90.4302 370.004ZM87.3487 377.34C87.3487 379.031 87.5024 380.354 87.8099 381.31L92.4636 372.103C91.9744 371.452 91.2966 371.126 90.4302 371.126C89.4659 371.126 88.7113 371.639 88.1663 372.664C87.6212 373.676 87.3487 375.234 87.3487 377.34ZM90.4302 383.554C91.4084 383.554 92.1701 383.049 92.7151 382.037C93.2601 381.012 93.5326 379.446 93.5326 377.34C93.5326 375.553 93.3579 374.168 93.0086 373.184L88.3549 382.474C88.858 383.194 89.5498 383.554 90.4302 383.554Z" fill="url(#paint45_linear_175_1901)" fill-opacity="0.6"/>
<path d="M90.4302 393.755C91.9255 393.755 93.0575 394.386 93.8261 395.646C94.6087 396.893 95 398.708 95 401.091C95 403.474 94.6087 405.296 93.8261 406.557C93.0575 407.818 91.9255 408.448 90.4302 408.448C88.9489 408.448 87.8169 407.818 87.0343 406.557C86.2517 405.296 85.8604 403.474 85.8604 401.091C85.8604 398.722 86.2517 396.907 87.0343 395.646C87.8169 394.386 88.9489 393.755 90.4302 393.755ZM87.3487 401.091C87.3487 402.782 87.5024 404.105 87.8099 405.061L92.4636 395.854C91.9744 395.203 91.2966 394.878 90.4302 394.878C89.4659 394.878 88.7113 395.39 88.1663 396.415C87.6212 397.427 87.3487 398.985 87.3487 401.091ZM90.4302 407.305C91.4084 407.305 92.1701 406.8 92.7151 405.788C93.2601 404.763 93.5326 403.197 93.5326 401.091C93.5326 399.304 93.3579 397.919 93.0086 396.935L88.3549 406.225C88.858 406.945 89.5498 407.305 90.4302 407.305Z" fill="url(#paint46_linear_175_1901)" fill-opacity="0.6"/>
<g opacity="0.6">
<path d="M918.93 -25C920.356 -25 921.436 -24.395 922.17 -23.1851C922.916 -21.9885 923.29 -20.2468 923.29 -17.9599C923.29 -15.673 922.916 -13.9246 922.17 -12.7147C921.436 -11.5048 920.356 -10.8998 918.93 -10.8998C917.517 -10.8998 916.437 -11.5048 915.69 -12.7147C914.943 -13.9246 914.57 -15.673 914.57 -17.9599C914.57 -20.2335 914.943 -21.9752 915.69 -23.1851C916.437 -24.395 917.517 -25 918.93 -25ZM915.99 -17.9599C915.99 -16.3378 916.137 -15.068 916.43 -14.1506L920.87 -22.9857C920.403 -23.6106 919.756 -23.923 918.93 -23.923C918.01 -23.923 917.29 -23.4311 916.77 -22.4472C916.25 -21.4766 915.99 -19.9808 915.99 -17.9599ZM918.93 -11.9967C919.863 -11.9967 920.59 -12.482 921.11 -13.4526C921.63 -14.4365 921.89 -15.9389 921.89 -17.9599C921.89 -19.675 921.723 -21.0046 921.39 -21.9486L916.95 -13.0338C917.43 -12.3424 918.09 -11.9967 918.93 -11.9967Z" fill="url(#paint47_linear_175_1901)"/>
<path d="M920.13 10.6365H923.07V11.6936H915.45V10.6365H918.85V-0.571812L915.61 1.36273L915.05 0.465258L919.05 -2.00776H920.13V10.6365Z" fill="url(#paint48_linear_175_1901)"/>
<path d="M918.93 20.5856C920.356 20.5856 921.436 21.1906 922.17 22.4005C922.916 23.5971 923.29 25.3389 923.29 27.6257C923.29 29.9126 922.916 31.661 922.17 32.8709C921.436 34.0808 920.356 34.6858 918.93 34.6858C917.517 34.6858 916.437 34.0808 915.69 32.8709C914.943 31.661 914.57 29.9126 914.57 27.6257C914.57 25.3521 914.943 23.6104 915.69 22.4005C916.437 21.1906 917.517 20.5856 918.93 20.5856ZM915.99 27.6257C915.99 29.2478 916.137 30.5176 916.43 31.435L920.87 22.5999C920.403 21.975 919.756 21.6626 918.93 21.6626C918.01 21.6626 917.29 22.1545 916.77 23.1384C916.25 24.109 915.99 25.6048 915.99 27.6257ZM918.93 33.5889C919.863 33.5889 920.59 33.1036 921.11 32.133C921.63 31.1491 921.89 29.6467 921.89 27.6257C921.89 25.9106 921.723 24.581 921.39 23.637L916.95 32.5518C917.43 33.2432 918.09 33.5889 918.93 33.5889Z" fill="url(#paint49_linear_175_1901)"/>
<path d="M920.13 56.2221H923.07V57.2792H915.45V56.2221H918.85V45.0138L915.61 46.9483L915.05 46.0509L919.05 43.5778H920.13V56.2221Z" fill="url(#paint50_linear_175_1901)"/>
<path d="M920.13 79.015H923.07V80.072H915.45V79.015H918.85V67.8066L915.61 69.7411L915.05 68.8437L919.05 66.3706H920.13V79.015Z" fill="url(#paint51_linear_175_1901)"/>
<path d="M918.93 88.964C920.356 88.964 921.436 89.569 922.17 90.7789C922.916 91.9755 923.29 93.7173 923.29 96.0041C923.29 98.291 922.916 100.039 922.17 101.249C921.436 102.459 920.356 103.064 918.93 103.064C917.517 103.064 916.437 102.459 915.69 101.249C914.943 100.039 914.57 98.291 914.57 96.0041C914.57 93.7306 914.943 91.9888 915.69 90.7789C916.437 89.569 917.517 88.964 918.93 88.964ZM915.99 96.0041C915.99 97.6262 916.137 98.896 916.43 99.8134L920.87 90.9783C920.403 90.3534 919.756 90.041 918.93 90.041C918.01 90.041 917.29 90.5329 916.77 91.5168C916.25 92.4874 915.99 93.9832 915.99 96.0041ZM918.93 101.967C919.863 101.967 920.59 101.482 921.11 100.511C921.63 99.5275 921.89 98.0251 921.89 96.0041C921.89 94.289 921.723 92.9594 921.39 92.0154L916.95 100.93C917.43 101.622 918.09 101.967 918.93 101.967Z" fill="url(#paint52_linear_175_1901)"/>
<path d="M920.13 124.601H923.07V125.658H915.45V124.601H918.85V113.392L915.61 115.327L915.05 114.429L919.05 111.956H920.13V124.601Z" fill="url(#paint53_linear_175_1901)"/>
<path d="M918.93 134.55C920.356 134.55 921.436 135.155 922.17 136.365C922.916 137.561 923.29 139.303 923.29 141.59C923.29 143.877 922.916 145.625 922.17 146.835C921.436 148.045 920.356 148.65 918.93 148.65C917.517 148.65 916.437 148.045 915.69 146.835C914.943 145.625 914.57 143.877 914.57 141.59C914.57 139.316 914.943 137.574 915.69 136.365C916.437 135.155 917.517 134.55 918.93 134.55ZM915.99 141.59C915.99 143.212 916.137 144.482 916.43 145.399L920.87 136.564C920.403 135.939 919.756 135.627 918.93 135.627C918.01 135.627 917.29 136.119 916.77 137.102C916.25 138.073 915.99 139.569 915.99 141.59ZM918.93 147.553C919.863 147.553 920.59 147.068 921.11 146.097C921.63 145.113 921.89 143.611 921.89 141.59C921.89 139.875 921.723 138.545 921.39 137.601L916.95 146.516C917.43 147.207 918.09 147.553 918.93 147.553Z" fill="url(#paint54_linear_175_1901)"/>
<path d="M918.93 157.342C920.356 157.342 921.436 157.947 922.17 159.157C922.916 160.354 923.29 162.096 923.29 164.383C923.29 166.669 922.916 168.418 922.17 169.628C921.436 170.838 920.356 171.443 918.93 171.443C917.517 171.443 916.437 170.838 915.69 169.628C914.943 168.418 914.57 166.669 914.57 164.383C914.57 162.109 914.943 160.367 915.69 159.157C916.437 157.947 917.517 157.342 918.93 157.342ZM915.99 164.383C915.99 166.005 916.137 167.274 916.43 168.192L920.87 159.357C920.403 158.732 919.756 158.419 918.93 158.419C918.01 158.419 917.29 158.911 916.77 159.895C916.25 160.866 915.99 162.362 915.99 164.383ZM918.93 170.346C919.863 170.346 920.59 169.86 921.11 168.89C921.63 167.906 921.89 166.404 921.89 164.383C921.89 162.667 921.723 161.338 921.39 160.394L916.95 169.309C917.43 170 918.09 170.346 918.93 170.346Z" fill="url(#paint55_linear_175_1901)"/>
<path d="M920.13 192.979H923.07V194.036H915.45V192.979H918.85V181.771L915.61 183.705L915.05 182.808L919.05 180.335H920.13V192.979Z" fill="url(#paint56_linear_175_1901)"/>
<path d="M918.93 202.928C920.356 202.928 921.436 203.533 922.17 204.743C922.916 205.94 923.29 207.681 923.29 209.968C923.29 212.255 922.916 214.003 922.17 215.213C921.436 216.423 920.356 217.028 918.93 217.028C917.517 217.028 916.437 216.423 915.69 215.213C914.943 214.003 914.57 212.255 914.57 209.968C914.57 207.695 914.943 205.953 915.69 204.743C916.437 203.533 917.517 202.928 918.93 202.928ZM915.99 209.968C915.99 211.59 916.137 212.86 916.43 213.777L920.87 204.942C920.403 204.317 919.756 204.005 918.93 204.005C918.01 204.005 917.29 204.497 916.77 205.481C916.25 206.451 915.99 207.947 915.99 209.968ZM918.93 215.931C919.863 215.931 920.59 215.446 921.11 214.475C921.63 213.492 921.89 211.989 921.89 209.968C921.89 208.253 921.723 206.923 921.39 205.979L916.95 214.894C917.43 215.586 918.09 215.931 918.93 215.931Z" fill="url(#paint57_linear_175_1901)"/>
<path d="M920.13 238.565H923.07V239.622H915.45V238.565H918.85V227.356L915.61 229.291L915.05 228.393L919.05 225.92H920.13V238.565Z" fill="url(#paint58_linear_175_1901)"/>
<path d="M920.13 261.357H923.07V262.414H915.45V261.357H918.85V250.149L915.61 252.084L915.05 251.186L919.05 248.713H920.13V261.357Z" fill="url(#paint59_linear_175_1901)"/>
<path d="M956.07 20.5856C957.497 20.5856 958.577 21.1906 959.31 22.4005C960.057 23.5971 960.43 25.3389 960.43 27.6257C960.43 29.9126 960.057 31.661 959.31 32.8709C958.577 34.0808 957.497 34.6858 956.07 34.6858C954.657 34.6858 953.577 34.0808 952.83 32.8709C952.084 31.661 951.71 29.9126 951.71 27.6257C951.71 25.3521 952.084 23.6104 952.83 22.4005C953.577 21.1906 954.657 20.5856 956.07 20.5856ZM953.13 27.6257C953.13 29.2478 953.277 30.5176 953.57 31.435L958.01 22.5999C957.543 21.975 956.897 21.6626 956.07 21.6626C955.15 21.6626 954.43 22.1545 953.91 23.1384C953.39 24.109 953.13 25.6048 953.13 27.6257ZM956.07 33.5889C957.003 33.5889 957.73 33.1036 958.25 32.133C958.77 31.1491 959.03 29.6467 959.03 27.6257C959.03 25.9106 958.863 24.581 958.53 23.637L954.09 32.5518C954.57 33.2432 955.23 33.5889 956.07 33.5889Z" fill="url(#paint60_linear_175_1901)"/>
<path d="M957.27 56.2221H960.21V57.2792H952.59V56.2221H955.99V45.0138L952.75 46.9483L952.19 46.0509L956.19 43.5778H957.27V56.2221Z" fill="url(#paint61_linear_175_1901)"/>
<path d="M956.07 66.1712C957.497 66.1712 958.577 66.7762 959.31 67.9861C960.057 69.1827 960.43 70.9245 960.43 73.2113C960.43 75.4982 960.057 77.2466 959.31 78.4565C958.577 79.6665 957.497 80.2714 956.07 80.2714C954.657 80.2714 953.577 79.6665 952.83 78.4565C952.084 77.2466 951.71 75.4982 951.71 73.2113C951.71 70.9378 952.084 69.196 952.83 67.9861C953.577 66.7762 954.657 66.1712 956.07 66.1712ZM953.13 73.2113C953.13 74.8334 953.277 76.1032 953.57 77.0206L958.01 68.1855C957.543 67.5606 956.897 67.2482 956.07 67.2482C955.15 67.2482 954.43 67.7401 953.91 68.724C953.39 69.6946 953.13 71.1904 953.13 73.2113ZM956.07 79.1745C957.003 79.1745 957.73 78.6892 958.25 77.7186C958.77 76.7347 959.03 75.2323 959.03 73.2113C959.03 71.4962 958.863 70.1666 958.53 69.2226L954.09 78.1374C954.57 78.8288 955.23 79.1745 956.07 79.1745Z" fill="url(#paint62_linear_175_1901)"/>
<path d="M956.07 88.964C957.497 88.964 958.577 89.569 959.31 90.7789C960.057 91.9755 960.43 93.7173 960.43 96.0041C960.43 98.291 960.057 100.039 959.31 101.249C958.577 102.459 957.497 103.064 956.07 103.064C954.657 103.064 953.577 102.459 952.83 101.249C952.084 100.039 951.71 98.291 951.71 96.0041C951.71 93.7306 952.084 91.9888 952.83 90.7789C953.577 89.569 954.657 88.964 956.07 88.964ZM953.13 96.0041C953.13 97.6262 953.277 98.896 953.57 99.8134L958.01 90.9783C957.543 90.3534 956.897 90.041 956.07 90.041C955.15 90.041 954.43 90.5329 953.91 91.5168C953.39 92.4874 953.13 93.9832 953.13 96.0041ZM956.07 101.967C957.003 101.967 957.73 101.482 958.25 100.511C958.77 99.5275 959.03 98.0251 959.03 96.0041C959.03 94.289 958.863 92.9594 958.53 92.0154L954.09 100.93C954.57 101.622 955.23 101.967 956.07 101.967Z" fill="url(#paint63_linear_175_1901)"/>
<path d="M957.27 124.601H960.21V125.658H952.59V124.601H955.99V113.392L952.75 115.327L952.19 114.429L956.19 111.956H957.27V124.601Z" fill="url(#paint64_linear_175_1901)"/>
<path d="M956.07 134.55C957.497 134.55 958.577 135.155 959.31 136.365C960.057 137.561 960.43 139.303 960.43 141.59C960.43 143.877 960.057 145.625 959.31 146.835C958.577 148.045 957.497 148.65 956.07 148.65C954.657 148.65 953.577 148.045 952.83 146.835C952.084 145.625 951.71 143.877 951.71 141.59C951.71 139.316 952.084 137.574 952.83 136.365C953.577 135.155 954.657 134.55 956.07 134.55ZM953.13 141.59C953.13 143.212 953.277 144.482 953.57 145.399L958.01 136.564C957.543 135.939 956.897 135.627 956.07 135.627C955.15 135.627 954.43 136.119 953.91 137.102C953.39 138.073 953.13 139.569 953.13 141.59ZM956.07 147.553C957.003 147.553 957.73 147.068 958.25 146.097C958.77 145.113 959.03 143.611 959.03 141.59C959.03 139.875 958.863 138.545 958.53 137.601L954.09 146.516C954.57 147.207 955.23 147.553 956.07 147.553Z" fill="url(#paint65_linear_175_1901)"/>
<path d="M957.27 170.186H960.21V171.243H952.59V170.186H955.99V158.978L952.75 160.912L952.19 160.015L956.19 157.542H957.27V170.186Z" fill="url(#paint66_linear_175_1901)"/>
<path d="M956.07 180.135C957.497 180.135 958.577 180.74 959.31 181.95C960.057 183.147 960.43 184.888 960.43 187.175C960.43 189.462 960.057 191.211 959.31 192.421C958.577 193.63 957.497 194.235 956.07 194.235C954.657 194.235 953.577 193.63 952.83 192.421C952.084 191.211 951.71 189.462 951.71 187.175C951.71 184.902 952.084 183.16 952.83 181.95C953.577 180.74 954.657 180.135 956.07 180.135ZM953.13 187.175C953.13 188.797 953.277 190.067 953.57 190.985L958.01 182.15C957.543 181.525 956.897 181.212 956.07 181.212C955.15 181.212 954.43 181.704 953.91 182.688C953.39 183.659 953.13 185.154 953.13 187.175ZM956.07 193.139C957.003 193.139 957.73 192.653 958.25 191.683C958.77 190.699 959.03 189.196 959.03 187.175C959.03 185.46 958.863 184.131 958.53 183.187L954.09 192.101C954.57 192.793 955.23 193.139 956.07 193.139Z" fill="url(#paint67_linear_175_1901)"/>
<path d="M956.07 202.928C957.497 202.928 958.577 203.533 959.31 204.743C960.057 205.94 960.43 207.681 960.43 209.968C960.43 212.255 960.057 214.003 959.31 215.213C958.577 216.423 957.497 217.028 956.07 217.028C954.657 217.028 953.577 216.423 952.83 215.213C952.084 214.003 951.71 212.255 951.71 209.968C951.71 207.695 952.084 205.953 952.83 204.743C953.577 203.533 954.657 202.928 956.07 202.928ZM953.13 209.968C953.13 211.59 953.277 212.86 953.57 213.777L958.01 204.942C957.543 204.317 956.897 204.005 956.07 204.005C955.15 204.005 954.43 204.497 953.91 205.481C953.39 206.451 953.13 207.947 953.13 209.968ZM956.07 215.931C957.003 215.931 957.73 215.446 958.25 214.475C958.77 213.492 959.03 211.989 959.03 209.968C959.03 208.253 958.863 206.923 958.53 205.979L954.09 214.894C954.57 215.586 955.23 215.931 956.07 215.931Z" fill="url(#paint68_linear_175_1901)"/>
<path d="M957.27 238.565H960.21V239.622H952.59V238.565H955.99V227.356L952.75 229.291L952.19 228.393L956.19 225.92H957.27V238.565Z" fill="url(#paint69_linear_175_1901)"/>
<path d="M956.07 248.514C957.497 248.514 958.577 249.119 959.31 250.329C960.057 251.525 960.43 253.267 960.43 255.554C960.43 257.841 960.057 259.589 959.31 260.799C958.577 262.009 957.497 262.614 956.07 262.614C954.657 262.614 953.577 262.009 952.83 260.799C952.084 259.589 951.71 257.841 951.71 255.554C951.71 253.28 952.084 251.538 952.83 250.329C953.577 249.119 954.657 248.514 956.07 248.514ZM953.13 255.554C953.13 257.176 953.277 258.446 953.57 259.363L958.01 250.528C957.543 249.903 956.897 249.591 956.07 249.591C955.15 249.591 954.43 250.083 953.91 251.066C953.39 252.037 953.13 253.533 953.13 255.554ZM956.07 261.517C957.003 261.517 957.73 261.032 958.25 260.061C958.77 259.077 959.03 257.575 959.03 255.554C959.03 253.839 958.863 252.509 958.53 251.565L954.09 260.48C954.57 261.171 955.23 261.517 956.07 261.517Z" fill="url(#paint70_linear_175_1901)"/>
<path d="M957.27 284.15H960.21V285.207H952.59V284.15H955.99V272.942L952.75 274.876L952.19 273.979L956.19 271.506H957.27V284.15Z" fill="url(#paint71_linear_175_1901)"/>
<path d="M957.27 306.943H960.21V308H952.59V306.943H955.99V295.735L952.75 297.669L952.19 296.772L956.19 294.299H957.27V306.943Z" fill="url(#paint72_linear_175_1901)"/>
<path d="M900.36 43.3784C901.786 43.3784 902.866 43.9834 903.599 45.1933C904.346 46.3899 904.719 48.1317 904.719 50.4185C904.719 52.7054 904.346 54.4538 903.599 55.6637C902.866 56.8736 901.786 57.4786 900.36 57.4786C898.946 57.4786 897.867 56.8736 897.12 55.6637C896.373 54.4538 896 52.7054 896 50.4185C896 48.145 896.373 46.4032 897.12 45.1933C897.867 43.9834 898.946 43.3784 900.36 43.3784ZM897.42 50.4185C897.42 52.0406 897.567 53.3104 897.86 54.2278L902.3 45.3927C901.833 44.7678 901.186 44.4554 900.36 44.4554C899.44 44.4554 898.72 44.9473 898.2 45.9312C897.68 46.9018 897.42 48.3976 897.42 50.4185ZM900.36 56.3817C901.293 56.3817 902.02 55.8964 902.54 54.9258C903.06 53.9419 903.319 52.4395 903.319 50.4185C903.319 48.7034 903.153 47.3738 902.82 46.4298L898.38 55.3446C898.86 56.036 899.52 56.3817 900.36 56.3817Z" fill="url(#paint73_linear_175_1901)"/>
<path d="M900.36 66.1712C901.786 66.1712 902.866 66.7762 903.599 67.9861C904.346 69.1827 904.719 70.9245 904.719 73.2113C904.719 75.4982 904.346 77.2466 903.599 78.4565C902.866 79.6665 901.786 80.2714 900.36 80.2714C898.946 80.2714 897.867 79.6665 897.12 78.4565C896.373 77.2466 896 75.4982 896 73.2113C896 70.9378 896.373 69.196 897.12 67.9861C897.867 66.7762 898.946 66.1712 900.36 66.1712ZM897.42 73.2113C897.42 74.8334 897.567 76.1032 897.86 77.0206L902.3 68.1855C901.833 67.5606 901.186 67.2482 900.36 67.2482C899.44 67.2482 898.72 67.7401 898.2 68.724C897.68 69.6946 897.42 71.1904 897.42 73.2113ZM900.36 79.1745C901.293 79.1745 902.02 78.6892 902.54 77.7186C903.06 76.7347 903.319 75.2323 903.319 73.2113C903.319 71.4962 903.153 70.1666 902.82 69.2226L898.38 78.1374C898.86 78.8288 899.52 79.1745 900.36 79.1745Z" fill="url(#paint74_linear_175_1901)"/>
<path d="M901.56 101.808H904.499V102.865H896.88V101.808H900.28V90.5994L897.04 92.5339L896.48 91.6365L900.48 89.1635H901.56V101.808Z" fill="url(#paint75_linear_175_1901)"/>
<path d="M900.36 111.757C901.786 111.757 902.866 112.362 903.599 113.572C904.346 114.768 904.719 116.51 904.719 118.797C904.719 121.084 904.346 122.832 903.599 124.042C902.866 125.252 901.786 125.857 900.36 125.857C898.946 125.857 897.867 125.252 897.12 124.042C896.373 122.832 896 121.084 896 118.797C896 116.523 896.373 114.782 897.12 113.572C897.867 112.362 898.946 111.757 900.36 111.757ZM897.42 118.797C897.42 120.419 897.567 121.689 897.86 122.606L902.3 113.771C901.833 113.146 901.186 112.834 900.36 112.834C899.44 112.834 898.72 113.326 898.2 114.31C897.68 115.28 897.42 116.776 897.42 118.797ZM900.36 124.76C901.293 124.76 902.02 124.275 902.54 123.304C903.06 122.32 903.319 120.818 903.319 118.797C903.319 117.082 903.153 115.752 902.82 114.808L898.38 123.723C898.86 124.414 899.52 124.76 900.36 124.76Z" fill="url(#paint76_linear_175_1901)"/>
<path d="M901.56 147.393H904.499V148.45H896.88V147.393H900.28V136.185L897.04 138.12L896.48 137.222L900.48 134.749H901.56V147.393Z" fill="url(#paint77_linear_175_1901)"/>
<path d="M901.56 170.186H904.499V171.243H896.88V170.186H900.28V158.978L897.04 160.912L896.48 160.015L900.48 157.542H901.56V170.186Z" fill="url(#paint78_linear_175_1901)"/>
<path d="M938.7 10.6365H941.64V11.6936H934.02V10.6365H937.42V-0.571812L934.18 1.36273L933.62 0.465258L937.62 -2.00776H938.7V10.6365Z" fill="url(#paint79_linear_175_1901)"/>
<path d="M937.5 20.5856C938.927 20.5856 940.006 21.1906 940.74 22.4005C941.486 23.5971 941.86 25.3389 941.86 27.6257C941.86 29.9126 941.486 31.661 940.74 32.8709C940.006 34.0808 938.927 34.6858 937.5 34.6858C936.087 34.6858 935.007 34.0808 934.26 32.8709C933.514 31.661 933.14 29.9126 933.14 27.6257C933.14 25.3521 933.514 23.6104 934.26 22.4005C935.007 21.1906 936.087 20.5856 937.5 20.5856ZM934.56 27.6257C934.56 29.2478 934.707 30.5176 935 31.435L939.44 22.5999C938.973 21.975 938.327 21.6626 937.5 21.6626C936.58 21.6626 935.86 22.1545 935.34 23.1384C934.82 24.109 934.56 25.6048 934.56 27.6257ZM937.5 33.5889C938.433 33.5889 939.16 33.1036 939.68 32.133C940.2 31.1491 940.46 29.6467 940.46 27.6257C940.46 25.9106 940.293 24.581 939.96 23.637L935.52 32.5518C936 33.2432 936.66 33.5889 937.5 33.5889Z" fill="url(#paint80_linear_175_1901)"/>
<path d="M938.7 56.2221H941.64V57.2792H934.02V56.2221H937.42V45.0138L934.18 46.9483L933.62 46.0509L937.62 43.5778H938.7V56.2221Z" fill="url(#paint81_linear_175_1901)"/>
<path d="M938.7 79.015H941.64V80.072H934.02V79.015H937.42V67.8066L934.18 69.7411L933.62 68.8437L937.62 66.3706H938.7V79.015Z" fill="url(#paint82_linear_175_1901)"/>
<path d="M937.5 88.964C938.927 88.964 940.006 89.569 940.74 90.7789C941.486 91.9755 941.86 93.7173 941.86 96.0041C941.86 98.291 941.486 100.039 940.74 101.249C940.006 102.459 938.927 103.064 937.5 103.064C936.087 103.064 935.007 102.459 934.26 101.249C933.514 100.039 933.14 98.291 933.14 96.0041C933.14 93.7306 933.514 91.9888 934.26 90.7789C935.007 89.569 936.087 88.964 937.5 88.964ZM934.56 96.0041C934.56 97.6262 934.707 98.896 935 99.8134L939.44 90.9783C938.973 90.3534 938.327 90.041 937.5 90.041C936.58 90.041 935.86 90.5329 935.34 91.5168C934.82 92.4874 934.56 93.9832 934.56 96.0041ZM937.5 101.967C938.433 101.967 939.16 101.482 939.68 100.511C940.2 99.5275 940.46 98.0251 940.46 96.0041C940.46 94.289 940.293 92.9594 939.96 92.0154L935.52 100.93C936 101.622 936.66 101.967 937.5 101.967Z" fill="url(#paint83_linear_175_1901)"/>
<path d="M938.7 124.601H941.64V125.658H934.02V124.601H937.42V113.392L934.18 115.327L933.62 114.429L937.62 111.956H938.7V124.601Z" fill="url(#paint84_linear_175_1901)"/>
<path d="M938.7 147.393H941.64V148.45H934.02V147.393H937.42V136.185L934.18 138.12L933.62 137.222L937.62 134.749H938.7V147.393Z" fill="url(#paint85_linear_175_1901)"/>
<path d="M937.5 157.342C938.927 157.342 940.006 157.947 940.74 159.157C941.486 160.354 941.86 162.096 941.86 164.383C941.86 166.669 941.486 168.418 940.74 169.628C940.006 170.838 938.927 171.443 937.5 171.443C936.087 171.443 935.007 170.838 934.26 169.628C933.514 168.418 933.14 166.669 933.14 164.383C933.14 162.109 933.514 160.367 934.26 159.157C935.007 157.947 936.087 157.342 937.5 157.342ZM934.56 164.383C934.56 166.005 934.707 167.274 935 168.192L939.44 159.357C938.973 158.732 938.327 158.419 937.5 158.419C936.58 158.419 935.86 158.911 935.34 159.895C934.82 160.866 934.56 162.362 934.56 164.383ZM937.5 170.346C938.433 170.346 939.16 169.86 939.68 168.89C940.2 167.906 940.46 166.404 940.46 164.383C940.46 162.667 940.293 161.338 939.96 160.394L935.52 169.309C936 170 936.66 170.346 937.5 170.346Z" fill="url(#paint86_linear_175_1901)"/>
<path d="M938.7 192.979H941.64V194.036H934.02V192.979H937.42V181.771L934.18 183.705L933.62 182.808L937.62 180.335H938.7V192.979Z" fill="url(#paint87_linear_175_1901)"/>
<path d="M937.5 202.928C938.927 202.928 940.006 203.533 940.74 204.743C941.486 205.94 941.86 207.681 941.86 209.968C941.86 212.255 941.486 214.003 940.74 215.213C940.006 216.423 938.927 217.028 937.5 217.028C936.087 217.028 935.007 216.423 934.26 215.213C933.514 214.003 933.14 212.255 933.14 209.968C933.14 207.695 933.514 205.953 934.26 204.743C935.007 203.533 936.087 202.928 937.5 202.928ZM934.56 209.968C934.56 211.59 934.707 212.86 935 213.777L939.44 204.942C938.973 204.317 938.327 204.005 937.5 204.005C936.58 204.005 935.86 204.497 935.34 205.481C934.82 206.451 934.56 207.947 934.56 209.968ZM937.5 215.931C938.433 215.931 939.16 215.446 939.68 214.475C940.2 213.492 940.46 211.989 940.46 209.968C940.46 208.253 940.293 206.923 939.96 205.979L935.52 214.894C936 215.586 936.66 215.931 937.5 215.931Z" fill="url(#paint88_linear_175_1901)"/>
<path d="M974.64 -2.2072C976.067 -2.2072 977.147 -1.60224 977.88 -0.392321C978.627 0.804302 979 2.54605 979 4.83293C979 7.1198 978.627 8.86821 977.88 10.0781C977.147 11.288 976.067 11.893 974.64 11.893C973.227 11.893 972.147 11.288 971.401 10.0781C970.654 8.86821 970.281 7.1198 970.281 4.83293C970.281 2.55935 970.654 0.817596 971.401 -0.392321C972.147 -1.60224 973.227 -2.2072 974.64 -2.2072ZM971.701 4.83293C971.701 6.45502 971.847 7.72477 972.14 8.64218L976.58 -0.192884C976.114 -0.817787 975.467 -1.13024 974.64 -1.13024C973.72 -1.13024 973 -0.638294 972.48 0.345596C971.96 1.31619 971.701 2.81197 971.701 4.83293ZM974.64 10.7961C975.574 10.7961 976.3 10.3108 976.82 9.34021C977.34 8.35632 977.6 6.85389 977.6 4.83293C977.6 3.11777 977.433 1.78819 977.1 0.844189L972.66 9.75902C973.14 10.4504 973.8 10.7961 974.64 10.7961Z" fill="url(#paint89_linear_175_1901)"/>
<path d="M975.84 33.4293H978.78V34.4864H971.161V33.4293H974.56V22.221L971.321 24.1555L970.761 23.2581L974.76 20.785H975.84V33.4293Z" fill="url(#paint90_linear_175_1901)"/>
<path d="M975.84 56.2221H978.78V57.2792H971.161V56.2221H974.56V45.0138L971.321 46.9483L970.761 46.0509L974.76 43.5778H975.84V56.2221Z" fill="url(#paint91_linear_175_1901)"/>
<path d="M974.64 66.1712C976.067 66.1712 977.147 66.7762 977.88 67.9861C978.627 69.1827 979 70.9245 979 73.2113C979 75.4982 978.627 77.2466 977.88 78.4565C977.147 79.6665 976.067 80.2714 974.64 80.2714C973.227 80.2714 972.147 79.6665 971.401 78.4565C970.654 77.2466 970.281 75.4982 970.281 73.2113C970.281 70.9378 970.654 69.196 971.401 67.9861C972.147 66.7762 973.227 66.1712 974.64 66.1712ZM971.701 73.2113C971.701 74.8334 971.847 76.1032 972.14 77.0206L976.58 68.1855C976.114 67.5606 975.467 67.2482 974.64 67.2482C973.72 67.2482 973 67.7401 972.48 68.724C971.96 69.6946 971.701 71.1904 971.701 73.2113ZM974.64 79.1745C975.574 79.1745 976.3 78.6892 976.82 77.7186C977.34 76.7347 977.6 75.2323 977.6 73.2113C977.6 71.4962 977.433 70.1666 977.1 69.2226L972.66 78.1374C973.14 78.8288 973.8 79.1745 974.64 79.1745Z" fill="url(#paint92_linear_175_1901)"/>
<path d="M974.64 88.964C976.067 88.964 977.147 89.569 977.88 90.7789C978.627 91.9755 979 93.7173 979 96.0041C979 98.291 978.627 100.039 977.88 101.249C977.147 102.459 976.067 103.064 974.64 103.064C973.227 103.064 972.147 102.459 971.401 101.249C970.654 100.039 970.281 98.291 970.281 96.0041C970.281 93.7306 970.654 91.9888 971.401 90.7789C972.147 89.569 973.227 88.964 974.64 88.964ZM971.701 96.0041C971.701 97.6262 971.847 98.896 972.14 99.8134L976.58 90.9783C976.114 90.3534 975.467 90.041 974.64 90.041C973.72 90.041 973 90.5329 972.48 91.5168C971.96 92.4874 971.701 93.9832 971.701 96.0041ZM974.64 101.967C975.574 101.967 976.3 101.482 976.82 100.511C977.34 99.5275 977.6 98.0251 977.6 96.0041C977.6 94.289 977.433 92.9594 977.1 92.0154L972.66 100.93C973.14 101.622 973.8 101.967 974.64 101.967Z" fill="url(#paint93_linear_175_1901)"/>
</g>
</g>
<defs>
<filter id="filter0_f_175_1901" x="-559.19" y="-711.19" width="2141.38" height="1500.38" filterUnits="userSpaceOnUse" color-interpolation-filters="sRGB">
<feFlood flood-opacity="0" result="BackgroundImageFix"/>
<feBlend mode="normal" in="SourceGraphic" in2="BackgroundImageFix" result="shape"/>
<feGaussianBlur stdDeviation="200.095" result="effect1_foregroundBlur_175_1901"/>
</filter>
<linearGradient id="paint0_linear_175_1901" x1="51.5" y1="275" x2="51.5" y2="586.381" gradientUnits="userSpaceOnUse">
<stop stop-color="#F7DD43"/>
<stop offset="1" stop-color="#F7DD43" stop-opacity="0"/>
</linearGradient>
<linearGradient id="paint1_linear_175_1901" x1="51.5" y1="275" x2="51.5" y2="586.381" gradientUnits="userSpaceOnUse">
<stop stop-color="#F7DD43"/>
<stop offset="1" stop-color="#F7DD43" stop-opacity="0"/>
</linearGradient>
<linearGradient id="paint2_linear_175_1901" x1="51.5" y1="275" x2="51.5" y2="586.381" gradientUnits="userSpaceOnUse">
<stop stop-color="#F7DD43"/>
<stop offset="1" stop-color="#F7DD43" stop-opacity="0"/>
</linearGradient>
<linearGradient id="paint3_linear_175_1901" x1="51.5" y1="275" x2="51.5" y2="586.381" gradientUnits="userSpaceOnUse">
<stop stop-color="#F7DD43"/>
<stop offset="1" stop-color="#F7DD43" stop-opacity="0"/>
</linearGradient>
<linearGradient id="paint4_linear_175_1901" x1="51.5" y1="275" x2="51.5" y2="586.381" gradientUnits="userSpaceOnUse">
<stop stop-color="#F7DD43"/>
<stop offset="1" stop-color="#F7DD43" stop-opacity="0"/>
</linearGradient>
<linearGradient id="paint5_linear_175_1901" x1="51.5" y1="275" x2="51.5" y2="586.381" gradientUnits="userSpaceOnUse">
<stop stop-color="#F7DD43"/>
<stop offset="1" stop-color="#F7DD43" stop-opacity="0"/>
</linearGradient>
<linearGradient id="paint6_linear_175_1901" x1="51.5" y1="275" x2="51.5" y2="586.381" gradientUnits="userSpaceOnUse">
<stop stop-color="#F7DD43"/>
<stop offset="1" stop-color="#F7DD43" stop-opacity="0"/>
</linearGradient>
<linearGradient id="paint7_linear_175_1901" x1="51.5" y1="275" x2="51.5" y2="586.381" gradientUnits="userSpaceOnUse">
<stop stop-color="#F7DD43"/>
<stop offset="1" stop-color="#F7DD43" stop-opacity="0"/>
</linearGradient>
<linearGradient id="paint8_linear_175_1901" x1="51.5" y1="275" x2="51.5" y2="586.381" gradientUnits="userSpaceOnUse">
<stop stop-color="#F7DD43"/>
<stop offset="1" stop-color="#F7DD43" stop-opacity="0"/>
</linearGradient>
<linearGradient id="paint9_linear_175_1901" x1="51.5" y1="275" x2="51.5" y2="586.381" gradientUnits="userSpaceOnUse">
<stop stop-color="#F7DD43"/>
<stop offset="1" stop-color="#F7DD43" stop-opacity="0"/>
</linearGradient>
<linearGradient id="paint10_linear_175_1901" x1="51.5" y1="275" x2="51.5" y2="586.381" gradientUnits="userSpaceOnUse">
<stop stop-color="#F7DD43"/>
<stop offset="1" stop-color="#F7DD43" stop-opacity="0"/>
</linearGradient>
<linearGradient id="paint11_linear_175_1901" x1="51.5" y1="275" x2="51.5" y2="586.381" gradientUnits="userSpaceOnUse">
<stop stop-color="#F7DD43"/>
<stop offset="1" stop-color="#F7DD43" stop-opacity="0"/>
</linearGradient>
<linearGradient id="paint12_linear_175_1901" x1="51.5" y1="275" x2="51.5" y2="586.381" gradientUnits="userSpaceOnUse">
<stop stop-color="#F7DD43"/>
<stop offset="1" stop-color="#F7DD43" stop-opacity="0"/>
</linearGradient>
<linearGradient id="paint13_linear_175_1901" x1="51.5" y1="275" x2="51.5" y2="586.381" gradientUnits="userSpaceOnUse">
<stop stop-color="#F7DD43"/>
<stop offset="1" stop-color="#F7DD43" stop-opacity="0"/>
</linearGradient>
<linearGradient id="paint14_linear_175_1901" x1="51.5" y1="275" x2="51.5" y2="586.381" gradientUnits="userSpaceOnUse">
<stop stop-color="#F7DD43"/>
<stop offset="1" stop-color="#F7DD43" stop-opacity="0"/>
</linearGradient>
<linearGradient id="paint15_linear_175_1901" x1="51.5" y1="275" x2="51.5" y2="586.381" gradientUnits="userSpaceOnUse">
<stop stop-color="#F7DD43"/>
<stop offset="1" stop-color="#F7DD43" stop-opacity="0"/>
</linearGradient>
<linearGradient id="paint16_linear_175_1901" x1="51.5" y1="275" x2="51.5" y2="586.381" gradientUnits="userSpaceOnUse">
<stop stop-color="#F7DD43"/>
<stop offset="1" stop-color="#F7DD43" stop-opacity="0"/>
</linearGradient>
<linearGradient id="paint17_linear_175_1901" x1="51.5" y1="275" x2="51.5" y2="586.381" gradientUnits="userSpaceOnUse">
<stop stop-color="#F7DD43"/>
<stop offset="1" stop-color="#F7DD43" stop-opacity="0"/>
</linearGradient>
<linearGradient id="paint18_linear_175_1901" x1="51.5" y1="275" x2="51.5" y2="586.381" gradientUnits="userSpaceOnUse">
<stop stop-color="#F7DD43"/>
<stop offset="1" stop-color="#F7DD43" stop-opacity="0"/>
</linearGradient>
<linearGradient id="paint19_linear_175_1901" x1="51.5" y1="275" x2="51.5" y2="586.381" gradientUnits="userSpaceOnUse">
<stop stop-color="#F7DD43"/>
<stop offset="1" stop-color="#F7DD43" stop-opacity="0"/>
</linearGradient>
<linearGradient id="paint20_linear_175_1901" x1="51.5" y1="275" x2="51.5" y2="586.381" gradientUnits="userSpaceOnUse">
<stop stop-color="#F7DD43"/>
<stop offset="1" stop-color="#F7DD43" stop-opacity="0"/>
</linearGradient>
<linearGradient id="paint21_linear_175_1901" x1="51.5" y1="275" x2="51.5" y2="586.381" gradientUnits="userSpaceOnUse">
<stop stop-color="#F7DD43"/>
<stop offset="1" stop-color="#F7DD43" stop-opacity="0"/>
</linearGradient>
<linearGradient id="paint22_linear_175_1901" x1="51.5" y1="275" x2="51.5" y2="586.381" gradientUnits="userSpaceOnUse">
<stop stop-color="#F7DD43"/>
<stop offset="1" stop-color="#F7DD43" stop-opacity="0"/>
</linearGradient>
<linearGradient id="paint23_linear_175_1901" x1="51.5" y1="275" x2="51.5" y2="586.381" gradientUnits="userSpaceOnUse">
<stop stop-color="#F7DD43"/>
<stop offset="1" stop-color="#F7DD43" stop-opacity="0"/>
</linearGradient>
<linearGradient id="paint24_linear_175_1901" x1="51.5" y1="275" x2="51.5" y2="586.381" gradientUnits="userSpaceOnUse">
<stop stop-color="#F7DD43"/>
<stop offset="1" stop-color="#F7DD43" stop-opacity="0"/>
</linearGradient>
<linearGradient id="paint25_linear_175_1901" x1="51.5" y1="275" x2="51.5" y2="586.381" gradientUnits="userSpaceOnUse">
<stop stop-color="#F7DD43"/>
<stop offset="1" stop-color="#F7DD43" stop-opacity="0"/>
</linearGradient>
<linearGradient id="paint26_linear_175_1901" x1="51.5" y1="275" x2="51.5" y2="586.381" gradientUnits="userSpaceOnUse">
<stop stop-color="#F7DD43"/>
<stop offset="1" stop-color="#F7DD43" stop-opacity="0"/>
</linearGradient>
<linearGradient id="paint27_linear_175_1901" x1="51.5" y1="275" x2="51.5" y2="586.381" gradientUnits="userSpaceOnUse">
<stop stop-color="#F7DD43"/>
<stop offset="1" stop-color="#F7DD43" stop-opacity="0"/>
</linearGradient>
<linearGradient id="paint28_linear_175_1901" x1="51.5" y1="275" x2="51.5" y2="586.381" gradientUnits="userSpaceOnUse">
<stop stop-color="#F7DD43"/>
<stop offset="1" stop-color="#F7DD43" stop-opacity="0"/>
</linearGradient>
<linearGradient id="paint29_linear_175_1901" x1="51.5" y1="275" x2="51.5" y2="586.381" gradientUnits="userSpaceOnUse">
<stop stop-color="#F7DD43"/>
<stop offset="1" stop-color="#F7DD43" stop-opacity="0"/>
</linearGradient>
<linearGradient id="paint30_linear_175_1901" x1="51.5" y1="275" x2="51.5" y2="586.381" gradientUnits="userSpaceOnUse">
<stop stop-color="#F7DD43"/>
<stop offset="1" stop-color="#F7DD43" stop-opacity="0"/>
</linearGradient>
<linearGradient id="paint31_linear_175_1901" x1="51.5" y1="275" x2="51.5" y2="586.381" gradientUnits="userSpaceOnUse">
<stop stop-color="#F7DD43"/>
<stop offset="1" stop-color="#F7DD43" stop-opacity="0"/>
</linearGradient>
<linearGradient id="paint32_linear_175_1901" x1="51.5" y1="275" x2="51.5" y2="586.381" gradientUnits="userSpaceOnUse">
<stop stop-color="#F7DD43"/>
<stop offset="1" stop-color="#F7DD43" stop-opacity="0"/>
</linearGradient>
<linearGradient id="paint33_linear_175_1901" x1="51.5" y1="275" x2="51.5" y2="586.381" gradientUnits="userSpaceOnUse">
<stop stop-color="#F7DD43"/>
<stop offset="1" stop-color="#F7DD43" stop-opacity="0"/>
</linearGradient>
<linearGradient id="paint34_linear_175_1901" x1="51.5" y1="275" x2="51.5" y2="586.381" gradientUnits="userSpaceOnUse">
<stop stop-color="#F7DD43"/>
<stop offset="1" stop-color="#F7DD43" stop-opacity="0"/>
</linearGradient>
<linearGradient id="paint35_linear_175_1901" x1="51.5" y1="275" x2="51.5" y2="586.381" gradientUnits="userSpaceOnUse">
<stop stop-color="#F7DD43"/>
<stop offset="1" stop-color="#F7DD43" stop-opacity="0"/>
</linearGradient>
<linearGradient id="paint36_linear_175_1901" x1="51.5" y1="275" x2="51.5" y2="586.381" gradientUnits="userSpaceOnUse">
<stop stop-color="#F7DD43"/>
<stop offset="1" stop-color="#F7DD43" stop-opacity="0"/>
</linearGradient>
<linearGradient id="paint37_linear_175_1901" x1="51.5" y1="275" x2="51.5" y2="586.381" gradientUnits="userSpaceOnUse">
<stop stop-color="#F7DD43"/>
<stop offset="1" stop-color="#F7DD43" stop-opacity="0"/>
</linearGradient>
<linearGradient id="paint38_linear_175_1901" x1="51.5" y1="275" x2="51.5" y2="586.381" gradientUnits="userSpaceOnUse">
<stop stop-color="#F7DD43"/>
<stop offset="1" stop-color="#F7DD43" stop-opacity="0"/>
</linearGradient>
<linearGradient id="paint39_linear_175_1901" x1="51.5" y1="275" x2="51.5" y2="586.381" gradientUnits="userSpaceOnUse">
<stop stop-color="#F7DD43"/>
<stop offset="1" stop-color="#F7DD43" stop-opacity="0"/>
</linearGradient>
<linearGradient id="paint40_linear_175_1901" x1="51.5" y1="275" x2="51.5" y2="586.381" gradientUnits="userSpaceOnUse">
<stop stop-color="#F7DD43"/>
<stop offset="1" stop-color="#F7DD43" stop-opacity="0"/>
</linearGradient>
<linearGradient id="paint41_linear_175_1901" x1="51.5" y1="275" x2="51.5" y2="586.381" gradientUnits="userSpaceOnUse">
<stop stop-color="#F7DD43"/>
<stop offset="1" stop-color="#F7DD43" stop-opacity="0"/>
</linearGradient>
<linearGradient id="paint42_linear_175_1901" x1="51.5" y1="275" x2="51.5" y2="586.381" gradientUnits="userSpaceOnUse">
<stop stop-color="#F7DD43"/>
<stop offset="1" stop-color="#F7DD43" stop-opacity="0"/>
</linearGradient>
<linearGradient id="paint43_linear_175_1901" x1="51.5" y1="275" x2="51.5" y2="586.381" gradientUnits="userSpaceOnUse">
<stop stop-color="#F7DD43"/>
<stop offset="1" stop-color="#F7DD43" stop-opacity="0"/>
</linearGradient>
<linearGradient id="paint44_linear_175_1901" x1="51.5" y1="275" x2="51.5" y2="586.381" gradientUnits="userSpaceOnUse">
<stop stop-color="#F7DD43"/>
<stop offset="1" stop-color="#F7DD43" stop-opacity="0"/>
</linearGradient>
<linearGradient id="paint45_linear_175_1901" x1="51.5" y1="275" x2="51.5" y2="586.381" gradientUnits="userSpaceOnUse">
<stop stop-color="#F7DD43"/>
<stop offset="1" stop-color="#F7DD43" stop-opacity="0"/>
</linearGradient>
<linearGradient id="paint46_linear_175_1901" x1="51.5" y1="275" x2="51.5" y2="586.381" gradientUnits="userSpaceOnUse">
<stop stop-color="#F7DD43"/>
<stop offset="1" stop-color="#F7DD43" stop-opacity="0"/>
</linearGradient>
<linearGradient id="paint47_linear_175_1901" x1="937.5" y1="-25" x2="937.5" y2="273.818" gradientUnits="userSpaceOnUse">
<stop stop-color="#F7DD43"/>
<stop offset="1" stop-color="#F7DD43" stop-opacity="0"/>
</linearGradient>
<linearGradient id="paint48_linear_175_1901" x1="937.5" y1="-25" x2="937.5" y2="273.818" gradientUnits="userSpaceOnUse">
<stop stop-color="#F7DD43"/>
<stop offset="1" stop-color="#F7DD43" stop-opacity="0"/>
</linearGradient>
<linearGradient id="paint49_linear_175_1901" x1="937.5" y1="-25" x2="937.5" y2="273.818" gradientUnits="userSpaceOnUse">
<stop stop-color="#F7DD43"/>
<stop offset="1" stop-color="#F7DD43" stop-opacity="0"/>
</linearGradient>
<linearGradient id="paint50_linear_175_1901" x1="937.5" y1="-25" x2="937.5" y2="273.818" gradientUnits="userSpaceOnUse">
<stop stop-color="#F7DD43"/>
<stop offset="1" stop-color="#F7DD43" stop-opacity="0"/>
</linearGradient>
<linearGradient id="paint51_linear_175_1901" x1="937.5" y1="-25" x2="937.5" y2="273.818" gradientUnits="userSpaceOnUse">
<stop stop-color="#F7DD43"/>
<stop offset="1" stop-color="#F7DD43" stop-opacity="0"/>
</linearGradient>
<linearGradient id="paint52_linear_175_1901" x1="937.5" y1="-25" x2="937.5" y2="273.818" gradientUnits="userSpaceOnUse">
<stop stop-color="#F7DD43"/>
<stop offset="1" stop-color="#F7DD43" stop-opacity="0"/>
</linearGradient>
<linearGradient id="paint53_linear_175_1901" x1="937.5" y1="-25" x2="937.5" y2="273.818" gradientUnits="userSpaceOnUse">
<stop stop-color="#F7DD43"/>
<stop offset="1" stop-color="#F7DD43" stop-opacity="0"/>
</linearGradient>
<linearGradient id="paint54_linear_175_1901" x1="937.5" y1="-25" x2="937.5" y2="273.818" gradientUnits="userSpaceOnUse">
<stop stop-color="#F7DD43"/>
<stop offset="1" stop-color="#F7DD43" stop-opacity="0"/>
</linearGradient>
<linearGradient id="paint55_linear_175_1901" x1="937.5" y1="-25" x2="937.5" y2="273.818" gradientUnits="userSpaceOnUse">
<stop stop-color="#F7DD43"/>
<stop offset="1" stop-color="#F7DD43" stop-opacity="0"/>
</linearGradient>
<linearGradient id="paint56_linear_175_1901" x1="937.5" y1="-25" x2="937.5" y2="273.818" gradientUnits="userSpaceOnUse">
<stop stop-color="#F7DD43"/>
<stop offset="1" stop-color="#F7DD43" stop-opacity="0"/>
</linearGradient>
<linearGradient id="paint57_linear_175_1901" x1="937.5" y1="-25" x2="937.5" y2="273.818" gradientUnits="userSpaceOnUse">
<stop stop-color="#F7DD43"/>
<stop offset="1" stop-color="#F7DD43" stop-opacity="0"/>
</linearGradient>
<linearGradient id="paint58_linear_175_1901" x1="937.5" y1="-25" x2="937.5" y2="273.818" gradientUnits="userSpaceOnUse">
<stop stop-color="#F7DD43"/>
<stop offset="1" stop-color="#F7DD43" stop-opacity="0"/>
</linearGradient>
<linearGradient id="paint59_linear_175_1901" x1="937.5" y1="-25" x2="937.5" y2="273.818" gradientUnits="userSpaceOnUse">
<stop stop-color="#F7DD43"/>
<stop offset="1" stop-color="#F7DD43" stop-opacity="0"/>
</linearGradient>
<linearGradient id="paint60_linear_175_1901" x1="937.5" y1="-25" x2="937.5" y2="273.818" gradientUnits="userSpaceOnUse">
<stop stop-color="#F7DD43"/>
<stop offset="1" stop-color="#F7DD43" stop-opacity="0"/>
</linearGradient>
<linearGradient id="paint61_linear_175_1901" x1="937.5" y1="-25" x2="937.5" y2="273.818" gradientUnits="userSpaceOnUse">
<stop stop-color="#F7DD43"/>
<stop offset="1" stop-color="#F7DD43" stop-opacity="0"/>
</linearGradient>
<linearGradient id="paint62_linear_175_1901" x1="937.5" y1="-25" x2="937.5" y2="273.818" gradientUnits="userSpaceOnUse">
<stop stop-color="#F7DD43"/>
<stop offset="1" stop-color="#F7DD43" stop-opacity="0"/>
</linearGradient>
<linearGradient id="paint63_linear_175_1901" x1="937.5" y1="-25" x2="937.5" y2="273.818" gradientUnits="userSpaceOnUse">
<stop stop-color="#F7DD43"/>
<stop offset="1" stop-color="#F7DD43" stop-opacity="0"/>
</linearGradient>
<linearGradient id="paint64_linear_175_1901" x1="937.5" y1="-25" x2="937.5" y2="273.818" gradientUnits="userSpaceOnUse">
<stop stop-color="#F7DD43"/>
<stop offset="1" stop-color="#F7DD43" stop-opacity="0"/>
</linearGradient>
<linearGradient id="paint65_linear_175_1901" x1="937.5" y1="-25" x2="937.5" y2="273.818" gradientUnits="userSpaceOnUse">
<stop stop-color="#F7DD43"/>
<stop offset="1" stop-color="#F7DD43" stop-opacity="0"/>
</linearGradient>
<linearGradient id="paint66_linear_175_1901" x1="937.5" y1="-25" x2="937.5" y2="273.818" gradientUnits="userSpaceOnUse">
<stop stop-color="#F7DD43"/>
<stop offset="1" stop-color="#F7DD43" stop-opacity="0"/>
</linearGradient>
<linearGradient id="paint67_linear_175_1901" x1="937.5" y1="-25" x2="937.5" y2="273.818" gradientUnits="userSpaceOnUse">
<stop stop-color="#F7DD43"/>
<stop offset="1" stop-color="#F7DD43" stop-opacity="0"/>
</linearGradient>
<linearGradient id="paint68_linear_175_1901" x1="937.5" y1="-25" x2="937.5" y2="273.818" gradientUnits="userSpaceOnUse">
<stop stop-color="#F7DD43"/>
<stop offset="1" stop-color="#F7DD43" stop-opacity="0"/>
</linearGradient>
<linearGradient id="paint69_linear_175_1901" x1="937.5" y1="-25" x2="937.5" y2="273.818" gradientUnits="userSpaceOnUse">
<stop stop-color="#F7DD43"/>
<stop offset="1" stop-color="#F7DD43" stop-opacity="0"/>
</linearGradient>
<linearGradient id="paint70_linear_175_1901" x1="937.5" y1="-25" x2="937.5" y2="273.818" gradientUnits="userSpaceOnUse">
<stop stop-color="#F7DD43"/>
<stop offset="1" stop-color="#F7DD43" stop-opacity="0"/>
</linearGradient>
<linearGradient id="paint71_linear_175_1901" x1="937.5" y1="-25" x2="937.5" y2="273.818" gradientUnits="userSpaceOnUse">
<stop stop-color="#F7DD43"/>
<stop offset="1" stop-color="#F7DD43" stop-opacity="0"/>
</linearGradient>
<linearGradient id="paint72_linear_175_1901" x1="937.5" y1="-25" x2="937.5" y2="273.818" gradientUnits="userSpaceOnUse">
<stop stop-color="#F7DD43"/>
<stop offset="1" stop-color="#F7DD43" stop-opacity="0"/>
</linearGradient>
<linearGradient id="paint73_linear_175_1901" x1="937.5" y1="-25" x2="937.5" y2="273.818" gradientUnits="userSpaceOnUse">
<stop stop-color="#F7DD43"/>
<stop offset="1" stop-color="#F7DD43" stop-opacity="0"/>
</linearGradient>
<linearGradient id="paint74_linear_175_1901" x1="937.5" y1="-25" x2="937.5" y2="273.818" gradientUnits="userSpaceOnUse">
<stop stop-color="#F7DD43"/>
<stop offset="1" stop-color="#F7DD43" stop-opacity="0"/>
</linearGradient>
<linearGradient id="paint75_linear_175_1901" x1="937.5" y1="-25" x2="937.5" y2="273.818" gradientUnits="userSpaceOnUse">
<stop stop-color="#F7DD43"/>
<stop offset="1" stop-color="#F7DD43" stop-opacity="0"/>
</linearGradient>
<linearGradient id="paint76_linear_175_1901" x1="937.5" y1="-25" x2="937.5" y2="273.818" gradientUnits="userSpaceOnUse">
<stop stop-color="#F7DD43"/>
<stop offset="1" stop-color="#F7DD43" stop-opacity="0"/>
</linearGradient>
<linearGradient id="paint77_linear_175_1901" x1="937.5" y1="-25" x2="937.5" y2="273.818" gradientUnits="userSpaceOnUse">
<stop stop-color="#F7DD43"/>
<stop offset="1" stop-color="#F7DD43" stop-opacity="0"/>
</linearGradient>
<linearGradient id="paint78_linear_175_1901" x1="937.5" y1="-25" x2="937.5" y2="273.818" gradientUnits="userSpaceOnUse">
<stop stop-color="#F7DD43"/>
<stop offset="1" stop-color="#F7DD43" stop-opacity="0"/>
</linearGradient>
<linearGradient id="paint79_linear_175_1901" x1="937.5" y1="-25" x2="937.5" y2="273.818" gradientUnits="userSpaceOnUse">
<stop stop-color="#F7DD43"/>
<stop offset="1" stop-color="#F7DD43" stop-opacity="0"/>
</linearGradient>
<linearGradient id="paint80_linear_175_1901" x1="937.5" y1="-25" x2="937.5" y2="273.818" gradientUnits="userSpaceOnUse">
<stop stop-color="#F7DD43"/>
<stop offset="1" stop-color="#F7DD43" stop-opacity="0"/>
</linearGradient>
<linearGradient id="paint81_linear_175_1901" x1="937.5" y1="-25" x2="937.5" y2="273.818" gradientUnits="userSpaceOnUse">
<stop stop-color="#F7DD43"/>
<stop offset="1" stop-color="#F7DD43" stop-opacity="0"/>
</linearGradient>
<linearGradient id="paint82_linear_175_1901" x1="937.5" y1="-25" x2="937.5" y2="273.818" gradientUnits="userSpaceOnUse">
<stop stop-color="#F7DD43"/>
<stop offset="1" stop-color="#F7DD43" stop-opacity="0"/>
</linearGradient>
<linearGradient id="paint83_linear_175_1901" x1="937.5" y1="-25" x2="937.5" y2="273.818" gradientUnits="userSpaceOnUse">
<stop stop-color="#F7DD43"/>
<stop offset="1" stop-color="#F7DD43" stop-opacity="0"/>
</linearGradient>
<linearGradient id="paint84_linear_175_1901" x1="937.5" y1="-25" x2="937.5" y2="273.818" gradientUnits="userSpaceOnUse">
<stop stop-color="#F7DD43"/>
<stop offset="1" stop-color="#F7DD43" stop-opacity="0"/>
</linearGradient>
<linearGradient id="paint85_linear_175_1901" x1="937.5" y1="-25" x2="937.5" y2="273.818" gradientUnits="userSpaceOnUse">
<stop stop-color="#F7DD43"/>
<stop offset="1" stop-color="#F7DD43" stop-opacity="0"/>
</linearGradient>
<linearGradient id="paint86_linear_175_1901" x1="937.5" y1="-25" x2="937.5" y2="273.818" gradientUnits="userSpaceOnUse">
<stop stop-color="#F7DD43"/>
<stop offset="1" stop-color="#F7DD43" stop-opacity="0"/>
</linearGradient>
<linearGradient id="paint87_linear_175_1901" x1="937.5" y1="-25" x2="937.5" y2="273.818" gradientUnits="userSpaceOnUse">
<stop stop-color="#F7DD43"/>
<stop offset="1" stop-color="#F7DD43" stop-opacity="0"/>
</linearGradient>
<linearGradient id="paint88_linear_175_1901" x1="937.5" y1="-25" x2="937.5" y2="273.818" gradientUnits="userSpaceOnUse">
<stop stop-color="#F7DD43"/>
<stop offset="1" stop-color="#F7DD43" stop-opacity="0"/>
</linearGradient>
<linearGradient id="paint89_linear_175_1901" x1="937.5" y1="-25" x2="937.5" y2="273.818" gradientUnits="userSpaceOnUse">
<stop stop-color="#F7DD43"/>
<stop offset="1" stop-color="#F7DD43" stop-opacity="0"/>
</linearGradient>
<linearGradient id="paint90_linear_175_1901" x1="937.5" y1="-25" x2="937.5" y2="273.818" gradientUnits="userSpaceOnUse">
<stop stop-color="#F7DD43"/>
<stop offset="1" stop-color="#F7DD43" stop-opacity="0"/>
</linearGradient>
<linearGradient id="paint91_linear_175_1901" x1="937.5" y1="-25" x2="937.5" y2="273.818" gradientUnits="userSpaceOnUse">
<stop stop-color="#F7DD43"/>
<stop offset="1" stop-color="#F7DD43" stop-opacity="0"/>
</linearGradient>
<linearGradient id="paint92_linear_175_1901" x1="937.5" y1="-25" x2="937.5" y2="273.818" gradientUnits="userSpaceOnUse">
<stop stop-color="#F7DD43"/>
<stop offset="1" stop-color="#F7DD43" stop-opacity="0"/>
</linearGradient>
<linearGradient id="paint93_linear_175_1901" x1="937.5" y1="-25" x2="937.5" y2="273.818" gradientUnits="userSpaceOnUse">
<stop stop-color="#F7DD43"/>
<stop offset="1" stop-color="#F7DD43" stop-opacity="0"/>
</linearGradient>
<clipPath id="clip0_175_1901">
<rect width="1024" height="753" fill="white"/>
</clipPath>
</defs>
</svg>
